<svg xmlns="http://www.w3.org/2000/svg" viewBox="0 0 1566 1021" width="1566" height="1021">
	<defs>
		<clipPath clipPathUnits="userSpaceOnUse" id="cp1">
			<path d="M298 38L1298 38L1298 1038L298 1038Z" />
		</clipPath>
		<clipPath clipPathUnits="userSpaceOnUse" id="cp2">
			<path d="M349.12 848L1249.12 848L1249.12 168L349.12 168L349.12 848Z" />
		</clipPath>
	</defs>
	<style>
		tspan { white-space:pre }
		.shp0 { fill: #e2e2f7 } 
		.shp1 { fill: #ffffff } 
		.shp2 { fill: #e5e5e5 } 
	</style>
	<g id="Page 1" clip-path="url(#cp1)">
		<g id="Mask" clip-path="url(#cp2)">
			<path id="Path 9" class="shp0" d="M868.06 584.55C871.12 498.3 834.56 414.92 767.44 360.66C703.97 309.34 649.89 229.53 687.51 115.61C746.65 -63.49 945.86 9.08 1183.68 51.57C1405.12 91.14 1511.48 346.36 1384.9 532.3C1276.89 690.95 1145.34 810.7 1020.69 782.19C893.74 753.16 865.2 664.85 868.06 584.55Z" />
			<path id="Path 10" fill-rule="evenodd" class="shp1" d="M1209.09 97.41C1241.64 103.98 1275.29 110.77 1309.76 116.93C1413.34 135.43 1499.56 204.47 1540.41 301.59C1581.47 399.2 1570.4 509.74 1510.81 597.27C1452.11 683.5 1392.96 749.13 1335.01 792.34C1268.44 841.97 1205.14 860.38 1146.87 847.05C1016.14 817.15 991.81 723.21 994.43 649.67C995.94 607.09 987.64 564.19 970.42 525.62C953.03 486.68 926.51 452.09 893.72 425.57C835.87 378.8 775.05 298.36 813.87 180.8C837.06 110.57 882.98 74.48 958.39 67.24C968.62 66.26 979.19 65.8 990.12 65.8C1052.4 65.8 1125.93 80.63 1209.09 97.41ZM1335.31 792.74C1393.3 749.49 1452.49 683.83 1511.22 597.55C1526.73 574.78 1539.13 550.33 1548.1 524.9C1556.72 500.43 1562.2 474.92 1564.4 449.07C1568.64 399.15 1560.51 348.08 1540.87 301.39C1521.32 254.91 1490.71 213.6 1452.34 181.91C1432.46 165.5 1410.53 151.65 1387.15 140.76C1362.85 129.44 1336.84 121.26 1309.85 116.43C1275.38 110.28 1241.74 103.49 1209.19 96.92C1111.4 77.19 1026.92 60.15 958.34 66.74C882.71 74.01 836.65 110.2 813.39 180.64C796.21 232.67 796.91 281.85 815.45 326.81C830.29 362.78 856.52 396.14 893.41 425.96C959.43 479.34 997.01 562.97 993.93 649.65C992.26 696.46 1001.57 736.22 1021.6 767.84C1046.72 807.47 1088.83 834.29 1146.75 847.54C1159.05 850.35 1171.56 851.76 1184.29 851.76C1232.02 851.76 1282.65 832 1335.31 792.74Z" />
			<path id="Path 11" fill-rule="evenodd" class="shp2" d="M408.26 265.89C440.81 272.46 474.46 279.25 508.93 285.4C612.51 303.91 698.73 372.94 739.58 470.07C780.64 567.68 769.57 678.22 709.98 765.75C651.28 851.98 592.13 917.61 534.17 960.82C467.6 1010.45 404.3 1028.86 346.03 1015.53C215.3 985.63 190.98 891.69 193.6 818.15C195.11 775.57 186.81 732.67 169.58 694.09C152.2 655.16 125.68 620.56 92.89 594.05C35.04 547.27 -25.78 466.84 13.03 349.28C36.22 279.04 82.15 242.96 157.56 235.72C167.79 234.73 178.36 234.28 189.29 234.28C251.57 234.28 325.1 249.11 408.26 265.89ZM534.47 961.22C592.47 917.97 651.66 852.3 710.39 766.03C725.9 743.26 738.3 718.81 747.27 693.38C755.89 668.9 761.37 643.39 763.57 617.55C767.81 567.63 759.68 516.56 740.04 469.87C720.49 423.39 689.88 382.07 651.51 350.39C631.63 333.98 609.7 320.13 586.32 309.24C562.02 297.92 536.01 289.74 509.02 284.91C474.55 278.75 440.9 271.97 408.36 265.4C310.57 245.67 226.1 228.63 157.51 235.22C81.88 242.48 35.82 278.68 12.56 349.12C-4.62 401.15 -3.93 450.33 14.62 495.29C29.46 531.26 55.69 564.62 92.58 594.44C158.6 647.82 196.18 731.44 193.1 818.13C191.43 864.94 200.74 904.7 220.77 936.32C245.89 975.95 288 1002.77 345.92 1016.02C358.22 1018.83 370.73 1020.24 383.46 1020.24C431.18 1020.24 481.82 1000.48 534.47 961.22Z" />
		</g>
	</g>
</svg>