<svg xmlns="http://www.w3.org/2000/svg" viewBox="0 0 459 480" width="459" height="480">
	<defs>
		<clipPath clipPathUnits="userSpaceOnUse" id="cp1">
			<path d="M-468 -232L532 -232L532 768L-468 768Z" />
		</clipPath>
	</defs>
	<style>
		tspan { white-space:pre }
		.shp0 { mix-blend-mode: multiply;fill: #e2e2f7 } 
		.shp1 { fill: #ffffff } 
		.shp2 { fill: #33ff9d } 
		.shp3 { fill: #252f5a } 
		.shp4 { fill: #f5f5f7 } 
		.shp5 { fill: #ebebed } 
		.shp6 { fill: #3021bf } 
		.shp7 { fill: #3932d6 } 
		.shp8 { fill: #462be2 } 
		.shp9 { mix-blend-mode: multiply;fill: #ebebed } 
		.shp10 { fill: #ff8a33 } 
		.shp11 { fill: #ffa76c } 
		.shp12 { fill: #d86212 } 
		.shp13 { fill: #23d87d } 
		.shp14 { fill: #dddddd } 
		.shp15 { fill: #5e4ef9 } 
		.shp16 { mix-blend-mode: multiply;fill: #c0c0ce } 
		.shp17 { fill: #ef9d7f } 
		.shp18 { fill: #ffbea4 } 
		.shp19 { fill: #17203a } 
		.shp20 { fill: #dd8b66 } 
		.shp21 { opacity: 0.2;fill: #ffffff } 
		.shp22 { fill: #37477c } 
		.shp23 { fill: #16b260 } 
	</style>
	<g id="Page 1" clip-path="url(#cp1)">
		<g id="Ludzik-z-ksiazkami">
			<path id="Path 13" class="shp0" d="M401.84 433.64L29.08 433.64C27.01 433.64 25.32 431.95 25.32 429.88C25.32 427.81 27.01 426.11 29.08 426.11L401.84 426.11C403.9 426.11 405.6 427.81 405.6 429.88C405.6 431.95 403.9 433.64 401.84 433.64Z" />
			<path id="Path 14" fill-rule="evenodd" class="shp1" d="M311.98 94.39C311.29 94.4 310.6 94.35 309.91 94.27C300.95 93.17 293.63 85.23 291.72 82.98C293.83 122.03 304.33 136.13 304.44 136.27L304.04 136.58C303.93 136.44 293.3 122.19 291.21 82.79C289.27 84.58 280.64 92.04 271.93 91.13C267.37 90.65 263.49 87.99 260.38 83.22C253.71 72.97 261.82 57.63 269.8 46.57C279.9 32.55 293.47 20.32 301.8 14.89L302.17 14.65L302.19 15.1C302.64 30.82 310.94 44.33 318.27 56.25C327 70.45 333.9 81.67 323.09 90.25C319.63 93.01 315.9 94.39 311.98 94.39ZM309.97 93.77C314.51 94.33 318.82 93.01 322.78 89.86C333.24 81.56 326.45 70.5 317.84 56.51C310.55 44.65 302.3 31.22 301.7 15.56C293.38 21.08 280.12 33.1 270.2 46.86C259.06 62.32 255.72 75.14 260.8 82.94C263.82 87.58 267.58 90.17 271.98 90.63C272.46 90.68 272.94 90.7 273.42 90.7C282.06 90.7 290.29 82.99 291.18 82.13C290.95 77.63 290.86 73.4 290.87 69.42C289.61 68.8 279.31 64.21 266.91 71.08L266.67 70.65C278.72 63.96 288.86 67.95 290.88 68.87C290.89 66.03 290.97 63.33 291.08 60.76C290.05 60.07 281 54.44 268.63 60.35L268.41 59.89C280.32 54.21 289.23 59.01 291.11 60.18C291.34 55.49 291.71 51.24 292.17 47.43C291.46 46.85 285.99 42.68 277.83 46.02L277.64 45.56C285.42 42.38 290.86 45.82 292.24 46.86C292.99 40.87 293.94 36.01 294.84 32.27C294.36 31.94 292.19 30.69 288.18 32.17L288.01 31.7C291.92 30.25 294.19 31.26 294.96 31.75C295.49 29.62 295.99 27.87 296.42 26.5C296.15 26.3 295.27 25.81 293.52 26.33L293.37 25.85C295.1 25.34 296.11 25.72 296.58 26.01C297.26 23.9 297.73 22.82 297.75 22.78L298.2 22.98C298.17 23.07 296.6 26.66 294.98 33.85C296.26 33.29 299.72 32.11 302.24 34.42L301.9 34.79C299.31 32.41 295.56 34.11 294.84 34.47C294.32 36.85 293.79 39.6 293.31 42.72C300.65 40.32 305.08 45.97 305.13 46.03L304.73 46.33C304.69 46.28 300.36 40.78 293.23 43.28C292.66 47.09 292.17 51.43 291.84 56.33C293.75 55.58 302.27 52.83 310.56 59.17L310.25 59.57C301.76 53.07 293.02 56.37 291.8 56.88C291.53 60.89 291.38 65.26 291.37 70C296.53 66.76 309.19 67.83 316 75.47L315.63 75.8C308.97 68.33 296.1 67.32 291.37 70.6C291.38 74.23 291.47 78.08 291.68 82.14C292.36 83 300.19 92.57 309.97 93.77ZM296.51 26.58C296.51 26.58 296.51 26.58 296.51 26.58L296.51 26.58L296.51 26.58Z" />
			<path id="Path 15" fill-rule="evenodd" class="shp2" d="M69.24 378.09C68.7 378.09 68.14 378.07 67.58 378.03C53.82 377.02 53.2 363.86 52.43 347.21C51.78 333.23 51.04 317.39 42.56 304.14L42.32 303.77L42.77 303.76C52.74 303.57 70.81 306.03 87.05 311.93C99.87 316.59 115.2 324.7 115.46 336.92C115.58 342.62 113.86 347 110.36 349.96C103.67 355.61 92.33 354.31 89.73 353.92C110.18 387.66 109.41 405.42 109.4 405.6L108.9 405.57C108.91 405.4 109.65 387.83 89.42 354.36C89.11 357.3 87.53 367.98 80.74 373.93C77.58 376.7 73.72 378.09 69.24 378.09ZM43.22 304.25C51.55 317.54 52.28 333.28 52.93 347.18C53.69 363.59 54.3 376.55 67.62 377.53C72.68 377.91 76.97 376.56 80.41 373.55C87.83 367.05 88.9 354.72 88.98 353.64C86.87 350.17 84.78 346.94 82.74 343.93C82.72 343.93 82.7 343.93 82.68 343.93C76.92 343.93 66.91 352 65.62 361.88L65.12 361.82C66.45 351.67 76.31 343.67 82.4 343.44C79.73 339.52 77.14 336 74.67 332.83C73.37 333.1 64.29 335.29 60.93 345.44L60.45 345.29C63.73 335.38 72.33 332.85 74.33 332.4C71.29 328.54 68.44 325.22 65.83 322.4C58.52 324.35 58.04 331.32 58.04 331.39L57.54 331.36C57.54 331.29 58.03 324.12 65.45 321.98C63.29 319.67 61.31 317.69 59.54 316.02C58.75 316.12 54.69 316.83 53.89 320.26L53.4 320.14C54.18 316.82 57.7 315.84 59.08 315.59C53.69 310.55 50.37 308.46 50.3 308.42L50.56 307.99C50.6 308.02 51.59 308.64 53.34 310C53.57 309.5 54.19 308.62 55.9 308.07L56.06 308.55C54.31 309.1 53.86 310 53.75 310.32C54.88 311.21 56.28 312.37 57.91 313.84C58.28 313 59.58 310.89 63.63 309.88L63.75 310.37C59.61 311.4 58.51 313.66 58.3 314.19C61.16 316.78 64.68 320.26 68.66 324.8C69.22 323.17 71.77 317.26 80 315.51L80.1 316C71.47 317.83 69.3 324.35 69.04 325.23C71.56 328.12 74.26 331.42 77.09 335.18C77.99 333.15 82.65 324.17 95.7 322.16L95.77 322.66C82.22 324.74 77.91 334.48 77.44 335.64C78.98 337.7 80.56 339.89 82.17 342.22C83.32 340.32 89.45 331.33 103.19 330.07L103.24 330.57C89.11 331.86 83.18 341.46 82.49 342.68C84.74 345.96 87.05 349.51 89.39 353.36C90.67 353.58 103.03 355.5 110.04 349.58C113.42 346.72 115.07 342.47 114.96 336.93C114.77 327.62 104.79 318.91 86.88 312.4C71.3 306.74 54.01 304.24 43.91 304.24C43.68 304.24 43.45 304.25 43.22 304.25Z" />
			<path id="Path 21" class="shp3" d="M355.33 416.37L354.84 416.26C354.89 416.07 359.6 396.43 392.57 366.01C425.53 335.6 448.51 328.91 448.74 328.84L448.87 329.33C448.64 329.39 425.76 336.06 392.91 366.37C360.05 396.7 355.37 416.18 355.33 416.37ZM416.27 382.57L415.77 382.49C417.46 371.25 408.9 359.26 402.63 357.69L402.75 357.2C409.34 358.86 418.02 370.88 416.27 382.57ZM411.11 350.55C411.11 350.42 410.12 337.5 395.26 330.66L395.47 330.21C410.61 337.17 411.61 350.39 411.61 350.52L411.11 350.55ZM433.9 351.95L433.42 351.84C433.43 351.76 435.1 343.92 427.59 339.56L427.84 339.12C435.67 343.68 433.92 351.86 433.9 351.95ZM438.96 333.28L438.46 333.27C438.46 333.24 438.47 330.01 433.73 327.28L433.98 326.84C439 329.73 438.97 333.14 438.96 333.28ZM403.5 356.62C403.47 356.49 400.57 343.06 384.73 336.91L384.91 336.45C401.01 342.69 403.96 356.39 403.98 356.53L403.5 356.62ZM425.95 366.14C425.41 353.22 414.9 348.18 414.8 348.13L415.01 347.68C415.12 347.73 425.9 352.88 426.45 366.12L425.95 366.14ZM423.91 341.89L423.41 341.87C423.42 341.78 423.66 333.28 414.28 328.31L414.52 327.87C424.19 332.99 423.92 341.8 423.91 341.89ZM441.86 341.08L441.36 341.06C441.57 336.67 436.44 334.65 436.39 334.63L436.57 334.16C436.63 334.19 442.09 336.33 441.86 341.08ZM445.08 330.56L444.58 330.49L444.83 330.52L444.58 330.49C444.59 330.43 444.72 329.08 442.62 327.69L442.9 327.27C445.28 328.85 445.09 330.49 445.08 330.56Z" />
			<path id="Path 20" class="shp2" d="M392.74 366.19C392.74 366.19 386.41 394.45 408.68 399.09C436.16 404.81 429.11 352.76 458.39 326.91C435.02 319.71 377 316.77 369.79 340.12C362.58 363.48 392.74 366.19 392.74 366.19Z" />
			<path id="Path 19" class="shp1" d="M83.38 399.23C83.35 399.1 79.69 385.36 55.9 364.43C32.09 343.48 15.77 339.15 15.61 339.11L15.73 338.62C15.89 338.66 32.33 343.03 56.23 364.06C80.16 385.11 83.84 398.98 83.87 399.11L83.38 399.23ZM39.58 376.27C38.14 367.98 44.12 359.26 48.79 357.97L48.93 358.45C44.53 359.67 38.7 368.28 40.07 376.19L39.58 376.27ZM42.84 353.46L42.34 353.44C42.35 353.35 42.83 343.92 53.5 338.7L53.72 339.15C43.33 344.23 42.85 353.37 42.84 353.46ZM26.56 354.85C26.54 354.79 25.15 348.96 30.67 345.57L30.94 346C25.73 349.19 26.98 354.5 27.04 354.73L26.56 354.85ZM22.65 341.68C22.64 341.58 22.56 339.12 26.11 336.96L26.37 337.39C23.09 339.38 23.15 341.64 23.15 341.66L22.65 341.68ZM48.35 357.65L47.86 357.57C47.87 357.47 49.74 347.66 61.1 342.94L61.29 343.4C50.2 348.01 48.37 357.56 48.35 357.65ZM32.58 364.77L32.08 364.76C32.25 355.32 39.85 351.46 39.93 351.42L40.15 351.87C40.08 351.91 32.74 355.64 32.58 364.77ZM33.47 347.54C33.47 347.47 33.12 341.18 39.94 337.36L40.18 337.8C33.64 341.47 33.97 347.44 33.97 347.5L33.47 347.54ZM20.72 347.27C20.48 343.85 24.37 342.21 24.41 342.2L24.6 342.66C24.56 342.67 21 344.18 21.22 347.23L20.72 347.27ZM18.27 339.86C18.26 339.81 18.09 338.61 19.79 337.42L20.07 337.83C18.65 338.82 18.76 339.74 18.76 339.78L18.27 339.86Z" />
			<path id="Path 18" class="shp3" d="M56.07 364.25C56.07 364.25 61.03 384.19 45.32 387.85C25.92 392.37 30.04 355.33 8.83 337.48C25.29 331.98 66.41 328.91 71.91 345.36C77.42 361.81 56.07 364.25 56.07 364.25Z" />
			<path id="Path 16" class="shp3" d="M237.93 86.33C237.93 86.33 226.48 121.28 199.17 111.87C165.46 100.25 206.98 48.03 191.83 0.79C222.01 8.13 287.25 42.62 279.93 72.8C272.62 102.97 237.93 86.33 237.93 86.33Z" />
			<path id="Path 17" class="shp1" d="M246.69 165.58L246.21 165.43C246.29 165.19 253.85 140.84 237.69 86.4C221.54 31.94 200.9 9.78 200.69 9.56L201.06 9.22C201.26 9.44 221.98 31.67 238.17 86.25C254.38 140.87 246.76 165.34 246.69 165.58ZM202.14 89.12L201.68 88.93C207.35 75.07 224.58 67.6 232.83 70.08L232.69 70.55C224.81 68.2 207.62 75.73 202.14 89.12ZM228 57.28L227.59 57C227.68 56.86 237.31 43.12 258.34 45.35L258.29 45.85C237.58 43.64 228.09 57.14 228 57.28ZM202.82 44.2L202.34 44.05C202.37 43.95 205.73 34.04 217.02 34.04C217.09 34.04 217.16 34.04 217.23 34.04L217.22 34.54C217.16 34.54 217.09 34.54 217.03 34.54C206.08 34.54 202.85 44.11 202.82 44.2ZM209.38 20.65L208.94 20.4C209.03 20.24 211.17 16.54 218.51 16.65L218.5 17.15C211.51 17.04 209.4 20.61 209.38 20.65ZM232.37 68.85L232 68.52C232.12 68.39 244.22 55.37 265.81 59.02L265.72 59.52C244.41 55.92 232.49 68.72 232.37 68.85ZM201.68 64.65L201.26 64.38C210.44 50.32 225.52 51.71 225.67 51.72L225.62 52.22C225.46 52.2 210.68 50.86 201.68 64.65ZM220.21 39.82L219.77 39.58C219.82 39.49 224.88 30.38 237.7 30.38C238.15 30.38 238.61 30.39 239.08 30.41L239.06 30.91C225.51 30.23 220.26 39.72 220.21 39.82ZM201.15 27.27L200.71 27.03C203.52 21.74 210.83 22.94 210.91 22.95L210.82 23.45C210.76 23.44 203.79 22.3 201.15 27.27ZM204.51 13.65L204.05 13.45C204.08 13.37 204.92 11.49 208.5 11.32L208.52 11.82C205.28 11.98 204.54 13.58 204.51 13.65Z" />
			<path id="Path 22" fill-rule="evenodd" class="shp3" d="M392.23 338.93C398.03 341.9 404.75 341.74 412.21 338.44C424.74 332.9 430.92 314.46 429.6 286.5C428.43 261.54 421.71 236.03 415.88 222.63C402.64 241.47 381.7 251.38 363.22 260.12C341.41 270.45 324.18 278.6 330.41 297.27C332.77 304.34 337.03 309.43 343.07 312.39C356.19 318.82 373.67 313.17 374.96 312.74C378.48 307.89 381.7 303.21 384.63 298.73C381.51 290.87 364.76 281.71 350.53 285.58L350.39 285.1C364.94 281.15 381.4 290.09 384.96 298.22C388.81 292.31 392.17 286.73 395.09 281.52C394.16 280.13 386.01 268.76 370.14 269.94L370.1 269.45C385.63 268.27 393.88 278.91 395.36 281.04C398.92 274.67 401.84 268.86 404.21 263.67C397.39 254.75 387.57 258.09 387.48 258.12L387.31 257.65C387.41 257.61 397.42 254.21 404.45 263.16C406.41 258.84 408 254.97 409.28 251.56C408.76 250.65 405.44 245.32 400.21 246.21L400.13 245.71C405.18 244.87 408.53 249.43 409.51 250.97C413.34 240.69 414.31 234.93 414.33 234.8L414.82 234.88C414.81 234.95 414.52 236.69 413.64 239.91C414.35 239.89 415.96 240.12 417.76 242.25L417.38 242.57C415.53 240.39 413.93 240.38 413.5 240.43C412.92 242.49 412.12 245.12 411.02 248.25C412.18 248.23 415.88 248.61 419.67 253.72L419.27 254.01C415.38 248.78 411.54 248.73 410.84 248.76C408.94 254.13 406.18 260.94 402.24 269C404.39 268.82 414.12 268.64 421.3 279.02L420.89 279.31C413.38 268.44 403.06 269.39 401.98 269.52C399.47 274.62 396.49 280.22 392.95 286.25C395.71 286.28 410.89 287.18 421.16 304.01L420.73 304.27C410.09 286.84 394.19 286.71 392.66 286.75C390.71 290.06 388.6 293.5 386.3 297.07C389.03 297.45 405.06 300.41 414.69 318.6L414.25 318.83C404.37 300.18 387.71 297.74 386 297.54C382.82 302.47 379.29 307.63 375.38 313.01C375.74 314.58 380.09 332.7 392.23 338.93ZM401.08 341.54C397.86 341.54 394.82 340.82 392 339.37C380.36 333.4 375.78 316.76 375 313.54C340.85 360.39 316.36 369.39 316.11 369.48L315.95 369.01C316.19 368.92 340.49 359.97 374.46 313.42C370.89 314.52 355.04 318.81 342.85 312.84C336.69 309.82 332.34 304.63 329.93 297.43C323.56 278.34 340.97 270.1 363.01 259.67C381.55 250.9 402.57 240.95 415.73 221.98L415.98 221.61L416.16 222.02C422.04 235.34 428.91 261.2 430.1 286.48C431.04 306.41 428.73 331.68 412.41 338.9C408.42 340.66 404.64 341.54 401.08 341.54Z" />
			<path id="Path 23" class="shp4" d="M44.68 422.12C52.41 422.12 52.41 360.43 44.68 360.43L275.55 360.43C283.29 360.43 283.29 422.12 275.55 422.12L44.68 422.12Z" />
			<path id="Path 24" class="shp5" d="M280.05 371.02L48.77 371.02C48.22 371.02 47.77 370.57 47.77 370.02C47.77 369.47 48.22 369.02 48.77 369.02L280.05 369.02C280.61 369.02 281.05 369.47 281.05 370.02C281.05 370.57 280.61 371.02 280.05 371.02ZM280.05 383.17L48.77 383.17C48.22 383.17 47.77 382.72 47.77 382.17C47.77 381.62 48.22 381.17 48.77 381.17L280.05 381.17C280.61 381.17 281.05 381.62 281.05 382.17C281.05 382.72 280.61 383.17 280.05 383.17ZM280.05 401.39L48.77 401.39C48.22 401.39 47.77 400.94 47.77 400.39C47.77 399.84 48.22 399.39 48.77 399.39L280.05 399.39C280.61 399.39 281.05 399.84 281.05 400.39C281.05 400.94 280.61 401.39 280.05 401.39ZM280.05 413.54L48.77 413.54C48.22 413.54 47.77 413.09 47.77 412.54C47.77 411.99 48.22 411.54 48.77 411.54L280.05 411.54C280.61 411.54 281.05 411.99 281.05 412.54C281.05 413.09 280.61 413.54 280.05 413.54ZM280.05 377.09L48.77 377.09C48.22 377.09 47.77 376.65 47.77 376.09C47.77 375.54 48.22 375.09 48.77 375.09L280.05 375.09C280.61 375.09 281.05 375.54 281.05 376.09C281.05 376.65 280.61 377.09 280.05 377.09ZM280.05 389.24L48.77 389.24C48.22 389.24 47.77 388.79 47.77 388.24C47.77 387.69 48.22 387.24 48.77 387.24L280.05 387.24C280.61 387.24 281.05 387.69 281.05 388.24C281.05 388.79 280.61 389.24 280.05 389.24ZM280.05 395.32L48.77 395.32C48.22 395.32 47.77 394.87 47.77 394.32C47.77 393.76 48.22 393.32 48.77 393.32L280.05 393.32C280.61 393.32 281.05 393.76 281.05 394.32C281.05 394.87 280.61 395.32 280.05 395.32ZM280.05 407.46L48.77 407.46C48.22 407.46 47.77 407.02 47.77 406.46C47.77 405.91 48.22 405.46 48.77 405.46L280.05 405.46C280.61 405.46 281.05 405.91 281.05 406.46C281.05 407.02 280.61 407.46 280.05 407.46Z" />
			<path id="Path 25" class="shp6" d="M275.55 422.12C283.29 422.12 283.29 360.43 275.55 360.43L388.27 360.43C396.01 360.43 396.01 422.12 388.27 422.12L275.55 422.12Z" />
			<path id="Path 26" fill-rule="evenodd" class="shp6" d="M398.08 391.28C398.08 426.12 390.7 426.12 388.26 426.12L275.54 426.12C273.34 426.12 271.54 424.34 271.54 422.12C271.54 420.38 272.68 418.88 274.24 418.34C278.42 411.72 278.42 370.84 274.24 364.22C272.68 363.68 271.54 362.2 271.54 360.44C271.54 358.24 273.34 356.44 275.54 356.44L388.26 356.44C390.7 356.44 398.08 356.44 398.08 391.28ZM387.1 364.44L282.74 364.44C284.24 369.5 285.36 377.78 285.36 391.28C285.36 404.8 284.24 413.06 282.74 418.12L387.1 418.12C391.1 410.96 391.1 371.62 387.1 364.44Z" />
			<path id="Path 27" class="shp7" d="M366.16 418.12C365.6 421.34 364.94 424.08 364.14 426.12L334.46 426.12C335.26 424.08 335.92 421.34 336.48 418.12C338.92 403.54 338.92 379.02 336.48 364.44C335.92 361.22 335.26 358.48 334.46 356.44L364.14 356.44C364.94 358.48 365.6 361.22 366.16 364.44C368.62 379.02 368.62 403.54 366.16 418.12Z" />
			<path id="Path 28" fill-rule="evenodd" class="shp8" d="M275.55 426.13L44.68 426.13C42.47 426.13 40.68 424.33 40.68 422.13C40.68 419.92 42.47 418.13 44.68 418.13L274.37 418.13C278.38 410.95 278.38 371.61 274.37 364.44L44.68 364.44C42.47 364.44 40.68 362.64 40.68 360.44C40.68 358.23 42.47 356.44 44.68 356.44L275.55 356.44C277.97 356.44 285.35 356.44 285.35 391.28C285.35 426.13 277.97 426.13 275.55 426.13ZM275.55 364.44L275.57 364.44L275.55 364.44Z" />
			<path id="Path 29" class="shp9" d="M247.27 376.78L247.27 403.78C247.27 404.8 248.27 405.51 249.23 405.19L255.68 403.02L262.13 405.19C263.09 405.51 264.08 404.8 264.08 403.78L264.08 376.78C264.08 376.06 263.5 375.48 262.78 375.48L248.57 375.48C247.85 375.48 247.27 376.06 247.27 376.78Z" />
			<path id="Path 30" fill-rule="evenodd" class="shp9" d="M248.76 406.27C248.24 406.27 247.73 406.11 247.31 405.8C246.66 405.34 246.27 404.58 246.27 403.78L246.27 376.78C246.27 375.51 247.3 374.48 248.57 374.48L262.78 374.48C264.05 374.48 265.08 375.51 265.08 376.78L265.08 403.78C265.08 404.58 264.7 405.34 264.05 405.8C263.4 406.27 262.56 406.39 261.81 406.14L255.68 404.07L249.55 406.14C249.29 406.22 249.02 406.27 248.76 406.27ZM255.68 402.02C255.79 402.02 255.89 402.03 256 402.07L262.45 404.24C262.65 404.32 262.81 404.23 262.88 404.18C262.96 404.12 263.08 404 263.08 403.78L263.08 376.78C263.08 376.61 262.95 376.48 262.78 376.48L248.57 376.48C248.41 376.48 248.27 376.61 248.27 376.78L248.27 403.78C248.27 404 248.4 404.12 248.47 404.18C248.55 404.23 248.71 404.32 248.91 404.24L255.36 402.07C255.46 402.03 255.57 402.02 255.68 402.02Z" />
			<path id="Path 31" class="shp2" d="M246.31 376.05L246.31 403.06C246.31 404.07 247.31 404.79 248.27 404.46L254.72 402.29L261.17 404.46C262.13 404.79 263.13 404.07 263.13 403.06L263.13 376.05C263.13 375.33 262.54 374.75 261.82 374.75L247.61 374.75C246.9 374.75 246.31 375.33 246.31 376.05Z" />
			<path id="Path 32" fill-rule="evenodd" class="shp2" d="M261.64 405.54C261.38 405.54 261.11 405.5 260.85 405.41L254.72 403.35L248.59 405.41C247.83 405.67 246.99 405.54 246.35 405.08C245.7 404.61 245.32 403.86 245.32 403.06L245.32 376.05C245.32 374.79 246.35 373.75 247.62 373.75L261.83 373.75C263.1 373.75 264.13 374.79 264.13 376.05L264.13 403.06C264.13 403.86 263.74 404.61 263.09 405.08C262.66 405.38 262.16 405.54 261.64 405.54ZM247.62 375.75C247.45 375.75 247.32 375.89 247.32 376.05L247.32 403.06C247.32 403.28 247.44 403.4 247.52 403.45C247.59 403.51 247.75 403.59 247.96 403.52L254.4 401.34C254.61 401.27 254.83 401.27 255.04 401.34L261.49 403.52C261.69 403.59 261.85 403.51 261.93 403.45C262 403.4 262.13 403.28 262.13 403.06L262.13 376.05C262.13 375.89 261.99 375.75 261.83 375.75L247.62 375.75Z" />
			<path id="Path 33" class="shp5" d="M399.54 352.44C391.81 352.44 391.81 290.75 399.54 290.75L255.89 290.75C248.15 290.75 248.15 352.44 255.89 352.44L399.54 352.44Z" />
			<path id="Path 34" class="shp4" d="M251.38 301.33L395.44 301.33C396 301.33 396.44 300.88 396.44 300.33C396.44 299.78 396 299.33 395.44 299.33L251.38 299.33C250.83 299.33 250.38 299.78 250.38 300.33C250.38 300.88 250.83 301.33 251.38 301.33ZM251.38 313.48L395.44 313.48C396 313.48 396.44 313.03 396.44 312.48C396.44 311.93 396 311.48 395.44 311.48L251.38 311.48C250.83 311.48 250.38 311.93 250.38 312.48C250.38 313.03 250.83 313.48 251.38 313.48ZM251.38 331.7L395.44 331.7C396 331.7 396.44 331.25 396.44 330.7C396.44 330.15 396 329.7 395.44 329.7L251.38 329.7C250.83 329.7 250.38 330.15 250.38 330.7C250.38 331.25 250.83 331.7 251.38 331.7ZM251.38 343.85L395.44 343.85C396 343.85 396.44 343.4 396.44 342.85C396.44 342.3 396 341.85 395.44 341.85L251.38 341.85C250.83 341.85 250.38 342.3 250.38 342.85C250.38 343.4 250.83 343.85 251.38 343.85ZM251.38 307.4L395.44 307.4C396 307.4 396.44 306.96 396.44 306.4C396.44 305.85 396 305.4 395.44 305.4L251.38 305.4C250.83 305.4 250.38 305.85 250.38 306.4C250.38 306.96 250.83 307.4 251.38 307.4ZM251.38 319.55L395.44 319.55C396 319.55 396.44 319.1 396.44 318.55C396.44 318 396 317.55 395.44 317.55L251.38 317.55C250.83 317.55 250.38 318 250.38 318.55C250.38 319.1 250.83 319.55 251.38 319.55ZM251.38 325.63L395.44 325.63C396 325.63 396.44 325.18 396.44 324.63C396.44 324.07 396 323.63 395.44 323.63L251.38 323.63C250.83 323.63 250.38 324.07 250.38 324.63C250.38 325.18 250.83 325.63 251.38 325.63ZM251.38 337.78L395.44 337.78C396 337.78 396.44 337.33 396.44 336.78C396.44 336.22 396 335.78 395.44 335.78L251.38 335.78C250.83 335.78 250.38 336.22 250.38 336.78C250.38 337.33 250.83 337.78 251.38 337.78Z" />
			<path id="Path 35" class="shp10" d="M255.89 352.44C248.15 352.44 248.15 290.75 255.89 290.75L96.9 290.75C89.16 290.75 89.16 352.44 96.9 352.44L255.89 352.44Z" />
			<path id="Path 36" fill-rule="evenodd" class="shp10" d="M96.9 286.75L255.9 286.75C258.1 286.75 259.9 288.55 259.9 290.75C259.9 292.51 258.76 293.99 257.2 294.53C253.02 301.15 253.02 342.03 257.2 348.65C258.76 349.19 259.9 350.69 259.9 352.43C259.9 354.65 258.1 356.43 255.9 356.43L96.9 356.43C94.46 356.43 87.09 356.43 87.09 321.59C87.09 286.75 94.46 286.75 96.9 286.75ZM98.06 348.43L248.7 348.43C247.2 343.37 246.08 335.11 246.08 321.59C246.08 308.09 247.2 299.81 248.7 294.75L98.06 294.75C94.06 301.93 94.06 341.27 98.06 348.43Z" />
			<path id="Path 37" class="shp11" d="M119.01 348.43C119.56 351.65 120.22 354.39 121.03 356.43L136.38 356.43C135.58 354.39 134.92 351.65 134.36 348.43C131.92 333.85 131.92 309.33 134.36 294.75C134.92 291.53 135.58 288.79 136.38 286.75L121.03 286.75C120.22 288.79 119.56 291.53 119.01 294.75C116.55 309.33 116.55 333.85 119.01 348.43ZM209.43 348.43C209.99 351.65 210.65 354.39 211.45 356.43L226.81 356.43C226.01 354.39 225.35 351.65 224.79 348.43C222.35 333.85 222.35 309.33 224.79 294.75C225.35 291.53 226.01 288.79 226.81 286.75L211.45 286.75C210.65 288.79 209.99 291.53 209.43 294.75C206.97 309.33 206.97 333.85 209.43 348.43ZM140.6 348.43C141.16 351.65 141.82 354.39 142.62 356.43L152.23 356.43C151.43 354.39 150.77 351.65 150.21 348.43C147.77 333.85 147.77 309.33 150.21 294.75C150.77 291.53 151.43 288.79 152.23 286.75L142.62 286.75C141.82 288.79 141.16 291.53 140.6 294.75C138.14 309.33 138.14 333.85 140.6 348.43ZM154.08 348.43C154.63 351.65 155.29 354.39 156.1 356.43L165.7 356.43C164.91 354.39 164.25 351.65 163.69 348.43C161.25 333.85 161.25 309.33 163.69 294.75C164.25 291.53 164.91 288.79 165.7 286.75L156.1 286.75C155.29 288.79 154.63 291.53 154.08 294.75C151.62 309.33 151.62 333.85 154.08 348.43Z" />
			<path id="Path 38" fill-rule="evenodd" class="shp12" d="M255.89 356.44L399.54 356.44C401.75 356.44 403.54 354.64 403.54 352.44C403.54 350.23 401.75 348.44 399.54 348.44L257.06 348.44C253.05 341.26 253.05 301.92 257.06 294.75L399.54 294.75C401.75 294.75 403.54 292.95 403.54 290.75C403.54 288.54 401.75 286.75 399.54 286.75L255.89 286.75C253.46 286.75 246.09 286.75 246.09 321.59C246.09 356.44 253.46 356.44 255.89 356.44ZM255.89 294.75L255.87 294.75L255.89 294.75Z" />
			<path id="Path 39" class="shp9" d="M284.17 307.09L284.17 334.09C284.17 335.11 283.17 335.82 282.21 335.5L275.76 333.33L269.31 335.5C268.35 335.82 267.36 335.11 267.36 334.09L267.36 307.09C267.36 306.37 267.94 305.79 268.66 305.79L282.87 305.79C283.59 305.79 284.17 306.37 284.17 307.09Z" />
			<path id="Path 40" fill-rule="evenodd" class="shp9" d="M281.89 336.45L275.76 334.38L269.63 336.45C268.88 336.7 268.04 336.58 267.39 336.11C266.74 335.65 266.36 334.89 266.36 334.09L266.36 307.09C266.36 305.82 267.39 304.79 268.66 304.79L282.87 304.79C284.14 304.79 285.17 305.82 285.17 307.09L285.17 334.09C285.17 334.89 284.78 335.65 284.13 336.11C283.71 336.42 283.2 336.58 282.68 336.58C282.42 336.58 282.15 336.53 281.89 336.45ZM276.08 332.38L282.53 334.55C282.73 334.63 282.89 334.54 282.97 334.49C283.04 334.43 283.17 334.31 283.17 334.09L283.17 307.09C283.17 306.92 283.03 306.79 282.87 306.79L268.66 306.79C268.49 306.79 268.36 306.92 268.36 307.09L268.36 334.09C268.36 334.31 268.48 334.43 268.56 334.49C268.63 334.54 268.79 334.63 268.99 334.55L275.44 332.38C275.55 332.34 275.65 332.33 275.76 332.33C275.87 332.33 275.98 332.34 276.08 332.38Z" />
			<path id="Path 41" class="shp6" d="M285.12 306.36L285.12 333.37C285.12 334.38 284.13 335.1 283.17 334.78L276.72 332.6L270.27 334.78C269.31 335.1 268.31 334.38 268.31 333.37L268.31 306.36C268.31 305.65 268.89 305.06 269.61 305.06L283.82 305.06C284.54 305.06 285.12 305.65 285.12 306.36Z" />
			<path id="Path 42" fill-rule="evenodd" class="shp6" d="M268.35 335.39C267.7 334.92 267.31 334.17 267.31 333.37L267.31 306.36C267.31 305.1 268.34 304.06 269.61 304.06L283.82 304.06C285.09 304.06 286.12 305.1 286.12 306.36L286.12 333.37C286.12 334.17 285.74 334.92 285.09 335.39C284.45 335.85 283.61 335.98 282.85 335.72L276.72 333.66L270.59 335.72C270.33 335.81 270.06 335.85 269.8 335.85C269.28 335.85 268.78 335.69 268.35 335.39ZM269.61 306.06C269.45 306.06 269.31 306.2 269.31 306.36L269.31 333.37C269.31 333.59 269.44 333.71 269.51 333.76C269.59 333.82 269.75 333.9 269.95 333.83L276.4 331.65C276.61 331.58 276.83 331.58 277.04 331.65L283.48 333.83C283.69 333.9 283.85 333.82 283.92 333.76C284 333.71 284.12 333.59 284.12 333.37L284.12 306.36C284.12 306.2 283.99 306.06 283.82 306.06L269.61 306.06Z" />
			<path id="Path 43" class="shp13" d="M115.25 246.18L379.28 246.18C393.53 246.18 393.53 283.79 379.28 283.79L115.25 283.79M379.28 286.96L115.25 286.96C113.51 286.96 112.09 285.54 112.09 283.79C112.09 282.04 113.51 280.63 115.25 280.63L379.28 280.63C384.16 280.63 386.8 272.57 386.8 264.99C386.8 257.4 384.16 249.35 379.28 249.35L115.25 249.35C113.51 249.35 112.09 247.93 112.09 246.18C112.09 244.43 113.51 243.01 115.25 243.01L379.28 243.01C388.8 243.01 393.13 254.4 393.13 264.99C393.13 275.57 388.8 286.96 379.28 286.96Z" />
			<path id="Path 44" class="shp4" d="M36.72 283.79C50.98 283.79 50.98 246.18 36.72 246.18L219.47 246.18C233.72 246.18 233.72 283.79 219.47 283.79L36.72 283.79Z" />
			<path id="Path 45" class="shp5" d="M223.04 258.57L45.9 258.57C45.46 258.57 45.11 258.21 45.11 257.77C45.11 257.34 45.46 256.98 45.9 256.98L223.04 256.98C223.47 256.98 223.83 257.34 223.83 257.77C223.83 258.21 223.47 258.57 223.04 258.57ZM223.04 272.99L45.9 272.99C45.46 272.99 45.11 272.64 45.11 272.2C45.11 271.76 45.46 271.41 45.9 271.41L223.04 271.41C223.47 271.41 223.83 271.76 223.83 272.2C223.83 272.64 223.47 272.99 223.04 272.99ZM223.04 253.76L44.78 253.76C44.34 253.76 43.99 253.4 43.99 252.97C43.99 252.53 44.34 252.17 44.78 252.17L223.04 252.17C223.47 252.17 223.83 252.53 223.83 252.97C223.83 253.4 223.47 253.76 223.04 253.76ZM223.04 263.37L47.02 263.37C46.58 263.37 46.23 263.02 46.23 262.58C46.23 262.15 46.58 261.79 47.02 261.79L223.04 261.79C223.47 261.79 223.83 262.15 223.83 262.58C223.83 263.02 223.47 263.37 223.04 263.37ZM223.04 268.18L47.02 268.18C46.58 268.18 46.23 267.83 46.23 267.39C46.23 266.95 46.58 266.6 47.02 266.6L223.04 266.6C223.47 266.6 223.83 266.95 223.83 267.39C223.83 267.83 223.47 268.18 223.04 268.18ZM223.04 277.8L44.78 277.8C44.34 277.8 43.99 277.44 43.99 277.01C43.99 276.57 44.34 276.21 44.78 276.21L223.04 276.21C223.47 276.21 223.83 276.57 223.83 277.01C223.83 277.44 223.47 277.8 223.04 277.8Z" />
			<path id="Path 46" class="shp2" d="M219.47 286.96L36.72 286.96C34.97 286.96 33.56 285.54 33.56 283.79C33.56 282.04 34.97 280.63 36.72 280.63L219.47 280.63C224.36 280.63 226.99 272.57 226.99 264.99C226.99 257.4 224.36 249.35 219.47 249.35L36.72 249.35C34.97 249.35 33.56 247.93 33.56 246.18C33.56 244.43 34.97 243.01 36.72 243.01L219.47 243.01C228.99 243.01 233.33 254.4 233.33 264.99C233.33 275.57 228.99 286.96 219.47 286.96Z" />
			<path id="Path 47" class="shp9" d="M198.66 254.68L198.66 267.6C198.66 268.41 199.45 268.97 200.21 268.72L205.32 267L210.42 268.72C211.18 268.97 211.97 268.41 211.97 267.6L211.97 254.68C211.97 254.11 211.51 253.65 210.94 253.65L199.7 253.65C199.13 253.65 198.66 254.11 198.66 254.68Z" />
			<path id="Path 48" fill-rule="evenodd" class="shp9" d="M199.84 269.57C199.43 269.57 199.03 269.44 198.69 269.2C198.18 268.83 197.87 268.24 197.87 267.6L197.87 254.68C197.87 253.67 198.69 252.85 199.7 252.85L210.94 252.85C211.95 252.85 212.77 253.67 212.77 254.68L212.77 267.6C212.77 268.24 212.46 268.83 211.94 269.2C211.43 269.57 210.76 269.67 210.17 269.47L205.32 267.83L200.47 269.47C200.26 269.54 200.05 269.57 199.84 269.57ZM199.7 254.44C199.57 254.44 199.46 254.55 199.46 254.68L199.46 267.6C199.46 267.77 199.56 267.87 199.62 267.92C199.68 267.96 199.8 268.02 199.96 267.97L205.07 266.25C205.23 266.19 205.4 266.19 205.57 266.25L210.68 267.97C210.84 268.02 210.97 267.96 211.02 267.92C211.08 267.87 211.18 267.77 211.18 267.6L211.18 254.68C211.18 254.55 211.07 254.44 210.94 254.44L199.7 254.44Z" />
			<path id="Path 49" class="shp10" d="M197.91 254.1L197.91 267.03C197.91 267.83 198.7 268.4 199.46 268.14L204.56 266.42L209.67 268.14C210.43 268.4 211.22 267.83 211.22 267.03L211.22 254.1C211.22 253.53 210.75 253.07 210.19 253.07L198.94 253.07C198.37 253.07 197.91 253.53 197.91 254.1Z" />
			<path id="Path 50" fill-rule="evenodd" class="shp10" d="M199.08 269C198.68 269 198.27 268.87 197.94 268.63C197.42 268.26 197.12 267.66 197.12 267.03L197.12 254.1C197.12 253.1 197.93 252.28 198.94 252.28L210.19 252.28C211.19 252.28 212.01 253.1 212.01 254.1L212.01 267.03C212.01 267.66 211.7 268.26 211.19 268.63C210.68 269 210.01 269.09 209.41 268.89L204.56 267.26L199.71 268.89C199.51 268.96 199.29 269 199.08 269ZM204.56 265.63C204.65 265.63 204.73 265.64 204.82 265.67L209.92 267.39C210.09 267.45 210.21 267.38 210.27 267.34C210.32 267.3 210.42 267.2 210.42 267.03L210.42 254.1C210.42 253.97 210.32 253.86 210.19 253.86L198.94 253.86C198.81 253.86 198.7 253.97 198.7 254.1L198.7 267.03C198.7 267.2 198.8 267.3 198.86 267.34C198.92 267.38 199.05 267.45 199.2 267.39L204.31 265.67C204.39 265.64 204.48 265.63 204.56 265.63Z" />
			<path id="Path 51" class="shp2" d="M374.27 269.89L251.03 269.89C248.33 269.89 246.13 267.68 246.13 264.99C246.13 262.29 248.33 260.08 251.03 260.08L374.27 260.08C376.97 260.08 379.17 262.29 379.17 264.99C379.17 267.68 376.97 269.89 374.27 269.89Z" />
			<path id="Path 52" class="shp8" d="M91.72 239.01L163.32 239.01C173.15 233.68 180.46 221.62 180.49 205.89L214.44 85.29L418.84 85.29L384.89 205.89C384.86 221.62 377.54 233.68 367.72 239.01L251.41 239.01M367.72 243.01L251.41 243.01C249.2 243.01 247.41 241.22 247.41 239.01C247.41 236.81 249.2 235.01 251.41 235.01L366.66 235.01C375.44 229.76 380.86 218.71 380.88 205.88C380.88 205.52 380.93 205.15 381.03 204.8L413.55 89.29L217.47 89.29L184.49 206.45C184.29 222.38 176.95 236.17 165.23 242.53C164.64 242.85 163.99 243.01 163.32 243.01L91.71 243.01C89.51 243.01 87.71 241.22 87.71 239.01C87.71 236.81 89.51 235.01 91.71 235.01L162.26 235.01C171.04 229.76 176.47 218.71 176.49 205.88C176.49 205.52 176.54 205.15 176.64 204.8L210.59 84.21C211.08 82.48 212.65 81.29 214.44 81.29L418.84 81.29C420.09 81.29 421.27 81.88 422.02 82.87C422.78 83.87 423.02 85.17 422.68 86.37L388.88 206.45C388.69 222.38 381.34 236.17 369.63 242.53C369.04 242.85 368.38 243.01 367.72 243.01Z" />
			<path id="Path 53" class="shp4" d="M179.94 222.72C174.53 216.74 211.59 87.77 222.4 87.77L416.06 87.77L378.93 222.21L179.94 222.72Z" />
			<path id="Path 54" class="shp5" d="M195.93 200.58C195.88 200.58 195.84 200.57 195.79 200.57C195.24 200.49 194.86 199.99 194.94 199.44C199.19 168.41 209.45 134.76 226.31 96.55C226.53 96.05 227.12 95.82 227.63 96.04C228.13 96.26 228.36 96.85 228.14 97.36C211.36 135.39 201.14 168.87 196.92 199.71C196.85 200.21 196.42 200.58 195.93 200.58ZM202.11 200.58C202.07 200.58 202.02 200.57 201.98 200.57C201.43 200.49 201.05 199.99 201.12 199.44C205.37 168.25 215.63 134.59 232.5 96.55C232.72 96.04 233.31 95.82 233.82 96.04C234.32 96.26 234.55 96.86 234.32 97.36C217.54 135.23 207.32 168.71 203.1 199.71C203.03 200.21 202.61 200.58 202.11 200.58ZM208.3 200.58C208.25 200.58 208.21 200.57 208.16 200.57C207.61 200.49 207.23 199.99 207.31 199.44C211.54 168.1 221.8 134.44 238.68 96.55C238.91 96.04 239.5 95.82 240 96.04C240.51 96.27 240.73 96.86 240.51 97.36C223.71 135.08 213.5 168.56 209.29 199.71C209.22 200.21 208.79 200.58 208.3 200.58ZM214.48 200.58C214.44 200.58 214.39 200.57 214.35 200.57C213.8 200.49 213.42 199.99 213.49 199.44C217.65 168.39 228.21 133.77 244.87 96.55C245.1 96.04 245.69 95.82 246.19 96.04C246.69 96.27 246.92 96.86 246.69 97.36C230.11 134.41 219.61 168.85 215.47 199.71C215.41 200.21 214.98 200.58 214.48 200.58ZM220.67 200.58C220.63 200.58 220.58 200.57 220.54 200.57C219.99 200.49 219.6 199.99 219.68 199.44C223.83 168.23 234.39 133.61 251.05 96.54C251.28 96.04 251.88 95.82 252.38 96.04C252.88 96.27 253.11 96.86 252.88 97.37C236.29 134.26 225.79 168.69 221.66 199.71C221.59 200.21 221.16 200.58 220.67 200.58ZM226.86 200.58C226.81 200.58 226.77 200.57 226.72 200.57C226.18 200.49 225.79 199.99 225.86 199.45C230 168.09 240.56 133.47 257.24 96.54C257.47 96.04 258.06 95.82 258.56 96.04C259.07 96.27 259.29 96.86 259.06 97.37C242.47 134.12 231.96 168.55 227.85 199.71C227.78 200.21 227.35 200.58 226.86 200.58ZM233.04 200.58C232.99 200.58 232.95 200.57 232.91 200.57C232.36 200.5 231.97 199.99 232.04 199.45C236.18 167.94 246.74 133.32 263.43 96.54C263.66 96.04 264.25 95.82 264.75 96.04C265.25 96.27 265.48 96.87 265.25 97.37C248.64 133.97 238.13 168.4 234.03 199.71C233.96 200.21 233.53 200.58 233.04 200.58ZM239.22 200.58C239.18 200.58 239.14 200.57 239.09 200.57C238.54 200.5 238.16 199.99 238.23 199.45C242.35 167.8 252.91 133.17 269.61 96.54C269.84 96.04 270.44 95.82 270.94 96.04C271.44 96.27 271.66 96.87 271.43 97.37C254.81 133.82 244.31 168.25 240.21 199.7C240.15 200.21 239.72 200.58 239.22 200.58ZM245.41 200.58C245.37 200.58 245.32 200.57 245.28 200.57C244.73 200.5 244.35 200 244.42 199.45C248.53 167.66 259.08 133.03 275.8 96.54C276.03 96.04 276.63 95.82 277.12 96.05C277.63 96.28 277.85 96.87 277.62 97.37C260.99 133.69 250.48 168.12 246.4 199.7C246.33 200.21 245.9 200.58 245.41 200.58ZM251.6 200.58C251.55 200.58 251.51 200.57 251.47 200.57C250.92 200.5 250.53 200 250.6 199.45C253.7 175.33 260.15 150.69 270.33 124.13C270.53 123.62 271.11 123.36 271.62 123.56C272.14 123.75 272.4 124.33 272.2 124.85C262.08 151.26 255.66 175.75 252.59 199.7C252.52 200.21 252.09 200.58 251.6 200.58ZM257.78 200.58C257.74 200.58 257.7 200.57 257.65 200.57C257.11 200.5 256.72 200 256.79 199.45C260.87 167.37 271.43 132.75 288.17 96.53C288.41 96.03 289 95.81 289.5 96.05C290 96.28 290.22 96.87 289.99 97.37C273.33 133.4 262.83 167.83 258.77 199.7C258.71 200.21 258.28 200.58 257.78 200.58ZM263.97 200.58C263.92 200.58 263.88 200.57 263.84 200.57C263.29 200.5 262.9 200 262.97 199.45C267.04 167.24 277.6 132.62 294.36 96.53C294.59 96.03 295.19 95.81 295.68 96.05C296.18 96.28 296.4 96.87 296.17 97.38C279.5 133.27 269 167.7 264.96 199.7C264.89 200.21 264.46 200.58 263.97 200.58ZM270.15 200.58C270.11 200.58 270.07 200.57 270.03 200.57C269.48 200.5 269.09 200 269.16 199.45C273.22 167.1 283.78 132.47 300.54 96.53C300.78 96.03 301.37 95.82 301.87 96.05C302.37 96.28 302.59 96.88 302.36 97.38C285.68 133.13 275.17 167.55 271.14 199.7C271.08 200.21 270.65 200.58 270.15 200.58ZM276.34 200.58C276.3 200.58 276.25 200.57 276.21 200.57C275.66 200.5 275.28 200 275.34 199.45C279.39 166.97 289.95 132.34 306.73 96.53C306.96 96.03 307.56 95.81 308.06 96.05C308.56 96.28 308.78 96.88 308.54 97.38C291.85 133 281.35 167.42 277.33 199.7C277.27 200.21 276.83 200.58 276.34 200.58ZM282.52 200.58C282.48 200.58 282.44 200.57 282.4 200.57C281.85 200.5 281.46 200 281.53 199.45C285.56 166.84 296.12 132.21 312.92 96.53C313.15 96.03 313.75 95.81 314.25 96.05C314.75 96.28 314.96 96.88 314.73 97.38C298.02 132.87 287.52 167.29 283.51 199.7C283.45 200.2 283.02 200.58 282.52 200.58ZM288.71 200.58C288.67 200.58 288.63 200.57 288.58 200.57C288.04 200.5 287.65 200 287.71 199.45C291.73 166.69 302.29 132.06 319.1 96.53C319.34 96.03 319.94 95.81 320.43 96.05C320.93 96.29 321.15 96.88 320.91 97.38C304.19 132.73 293.69 167.15 289.7 199.7C289.64 200.2 289.21 200.58 288.71 200.58ZM294.89 200.58C294.85 200.58 294.81 200.57 294.77 200.57C294.22 200.5 293.83 200 293.9 199.45C296.57 177.54 302.16 154.73 310.53 131.68C310.72 131.16 311.29 130.9 311.81 131.08C312.33 131.27 312.6 131.85 312.41 132.37C304.09 155.27 298.53 177.93 295.88 199.7C295.82 200.2 295.39 200.58 294.89 200.58ZM301.08 200.58C301.04 200.58 301 200.57 300.96 200.57C300.41 200.5 300.02 200 300.09 199.46C304.07 166.44 314.63 131.81 331.47 96.52C331.71 96.03 332.3 95.81 332.81 96.05C333.31 96.29 333.52 96.89 333.28 97.39C316.53 132.47 306.03 166.9 302.07 199.7C302.01 200.2 301.58 200.58 301.08 200.58ZM307.26 200.58C307.22 200.58 307.18 200.57 307.14 200.57C306.59 200.5 306.2 200.01 306.27 199.46C310.24 166.3 320.8 131.67 337.66 96.52C337.9 96.02 338.51 95.82 338.99 96.05C339.49 96.29 339.7 96.89 339.47 97.39C322.7 132.34 312.2 166.76 308.25 199.7C308.19 200.2 307.76 200.58 307.26 200.58ZM313.45 200.58C313.41 200.58 313.37 200.57 313.33 200.57C312.78 200.5 312.39 200.01 312.46 199.46C316.41 166.17 326.97 131.54 343.85 96.52C344.09 96.02 344.69 95.81 345.18 96.05C345.68 96.29 345.89 96.89 345.65 97.39C328.87 132.21 318.37 166.63 314.44 199.69C314.38 200.2 313.95 200.58 313.45 200.58ZM319.63 200.58C319.59 200.58 319.55 200.57 319.51 200.57C318.97 200.5 318.57 200.01 318.64 199.46C322.58 166.05 333.14 131.41 350.03 96.52C350.27 96.02 350.87 95.82 351.37 96.05C351.87 96.3 352.07 96.89 351.83 97.39C335.04 132.08 324.54 166.5 320.62 199.69C320.57 200.2 320.13 200.58 319.63 200.58ZM325.82 200.58C325.78 200.58 325.74 200.57 325.7 200.57C325.15 200.5 324.76 200.01 324.82 199.46C328.75 165.92 339.31 131.28 356.22 96.52C356.46 96.02 357.07 95.82 357.56 96.06C358.05 96.3 358.26 96.9 358.02 97.39C341.21 131.95 330.71 166.37 326.81 199.69C326.75 200.2 326.32 200.58 325.82 200.58ZM332.01 200.58C331.97 200.58 331.93 200.57 331.89 200.57C331.34 200.51 330.95 200.01 331.01 199.46C334.92 165.79 345.48 131.16 362.41 96.52C362.65 96.02 363.25 95.82 363.74 96.06C364.24 96.3 364.45 96.9 364.2 97.39C347.38 131.83 336.88 166.25 333 199.69C332.94 200.2 332.51 200.58 332.01 200.58ZM338.19 200.58C338.15 200.58 338.11 200.57 338.07 200.57C337.53 200.51 337.13 200.01 337.2 199.46C341.09 165.67 351.65 131.03 368.59 96.51C368.83 96.02 369.43 95.81 369.93 96.06C370.42 96.3 370.63 96.9 370.39 97.4C353.55 131.71 343.05 166.13 339.18 199.69C339.13 200.2 338.69 200.58 338.19 200.58ZM344.38 200.58C344.34 200.58 344.3 200.57 344.26 200.57C343.71 200.51 343.32 200.01 343.38 199.46C347.26 165.55 357.82 130.91 374.78 96.51C375.02 96.02 375.63 95.82 376.11 96.06C376.61 96.3 376.81 96.9 376.57 97.4C359.72 131.59 349.22 166 345.37 199.69C345.31 200.2 344.88 200.58 344.38 200.58ZM350.56 200.58C350.52 200.58 350.49 200.57 350.45 200.57C349.9 200.51 349.5 200.01 349.57 199.46C353.43 165.43 363.99 130.79 380.96 96.51C381.21 96.01 381.81 95.82 382.3 96.06C382.8 96.3 383 96.9 382.76 97.4C365.88 131.47 355.39 165.88 351.55 199.69C351.5 200.2 351.06 200.58 350.56 200.58ZM356.75 200.58C356.71 200.58 356.67 200.57 356.63 200.57C356.09 200.51 355.69 200.01 355.75 199.46C357.44 184.48 360.44 169.27 364.66 154.25C364.81 153.72 365.35 153.41 365.89 153.56C366.42 153.71 366.73 154.26 366.58 154.79C362.39 169.7 359.42 184.81 357.74 199.69C357.68 200.2 357.25 200.58 356.75 200.58Z" />
			<path id="Path 55" class="shp14" d="M413.94 87.77C405.76 92.52 393.99 116.7 384.11 150.64C365.17 215.69 366.4 209.57 376.95 216.34C387.06 222.83 383.44 217.45 383.44 217.45L417.24 87.44L413.94 87.77Z" />
			<path id="Path 56" class="shp1" d="M59.67 239.01C59.67 239.01 69.81 228.42 74.37 219.61C74.93 218.52 76.1 217.91 77.31 218.05C87.45 219.26 133.31 224.12 185.74 220.4C217.8 218.13 325.17 202.53 373.15 213.35C379.1 214.69 382.21 221.36 379.41 226.78C376.64 232.13 372.63 237.81 367.72 239.01L59.67 239.01Z" />
			<path id="Path 57" class="shp14" d="M256.64 216.75C256.34 224.79 253.7 235.59 252.83 239.01L367.73 239.01C372.64 237.81 376.64 232.14 379.41 226.8C382.23 221.34 379.06 214.68 373.07 213.33C346.15 207.29 300.61 209.52 260.14 213.07C258.21 213.24 256.71 214.81 256.64 216.75Z" />
			<path id="Path 58" class="shp15" d="M311.03 243.01L47.01 243.01C44.81 243.01 43.01 241.22 43.01 239.01C43.01 236.81 44.81 235.01 47.01 235.01L311.03 235.01C313.23 235.01 315.03 236.81 315.03 239.01C315.03 241.22 313.23 243.01 311.03 243.01Z" />
			<path id="Path 59" class="shp8" d="M367.72 243.01L251.41 243.01C249.2 243.01 247.41 241.22 247.41 239.01C247.41 236.81 249.2 235.01 251.41 235.01L366.66 235.01C375.44 229.76 380.86 218.71 380.88 205.88C380.88 205.52 380.93 205.15 381.03 204.8L414.99 84.21C415.59 82.08 417.79 80.85 419.92 81.44C422.05 82.04 423.28 84.25 422.68 86.37L388.88 206.45C388.69 222.38 381.34 236.17 369.63 242.53C369.04 242.85 368.38 243.01 367.72 243.01Z" />
			<path id="Path 60" class="shp16" d="M135.74 332.32C131 332.32 126.03 326.72 124.68 319.88L109.59 243.17C108.24 236.34 111.02 230.74 115.76 230.74C120.49 230.74 125.47 236.34 126.82 243.17L141.91 319.88C143.25 326.72 140.48 332.32 135.74 332.32ZM111.83 332.32C107.09 332.32 101.57 326.72 99.56 319.88L77.04 243.17C75.03 236.34 77.26 230.74 82 230.74L82 230.74C86.73 230.74 92.25 236.34 94.26 243.17L116.79 319.88C118.8 326.72 116.56 332.32 111.83 332.32Z" />
			<path id="Path 61" class="shp17" d="M135.88 119.31C137.05 128.52 137.36 137.51 137.04 146.78C136.83 151.39 136.42 156.05 135.58 160.78C135.14 163.15 134.6 165.53 133.85 167.96C133.1 170.42 132.1 172.82 130.98 175.03C128.74 179.47 126.02 183.49 122.93 187.17C119.86 190.87 116.42 194.22 112.62 197.18C108.82 200.12 104.68 202.73 100.11 204.6C95.55 206.42 90.51 207.62 85.39 207.25C83.43 207.11 81.95 205.4 82.09 203.44C82.22 201.67 83.61 200.29 85.32 200.14L85.41 200.13C89.2 199.79 92.93 198.53 96.39 196.6C99.86 194.71 103.15 192.3 106.12 189.51C112.02 183.91 117.12 177.13 120.34 169.97C121.13 168.17 121.76 166.42 122.23 164.61C122.71 162.77 123.07 160.8 123.35 158.79C123.91 154.75 124.22 150.54 124.35 146.28C124.53 142.03 124.53 137.72 124.41 133.41C124.36 129.11 124.15 124.7 123.94 120.52L123.94 120.35C123.78 117.04 126.33 114.23 129.64 114.07C132.79 113.92 135.49 116.24 135.88 119.31Z" />
			<path id="Path 62" class="shp6" d="M133.87 105.34C137.85 104.32 140.37 117.1 142.05 123.93C143.24 128.76 143.88 139.36 144.15 145.17C144.25 147.29 142.47 149.02 140.35 148.86L123.61 147.55C121.83 147.42 120.45 145.98 120.35 144.21C119.88 135.11 119.77 108.96 133.87 105.34Z" />
			<path id="Path 63" class="shp18" d="M95.06 311.1C97.5 316.11 101.59 327.32 101.59 327.32L108.58 325.6C108.58 325.6 105.28 312.02 103.96 308.07L95.06 311.1ZM122.93 316.87C124.8 321.88 127.78 333.09 127.78 333.09L134.22 331.38C134.22 331.38 132.13 317.79 131.19 313.84L122.93 316.87Z" />
			<path id="Path 64" class="shp8" d="M185.07 115.43C183.08 105.77 174.57 98.85 164.76 98.85C164.63 98.85 164.49 98.86 164.36 98.86L145.99 99.2C145.06 99.22 144.16 99.45 143.34 99.88L133.09 105.18C125.75 108.99 121.87 117.31 123.66 125.43C132.52 165.76 131.37 198.79 131.35 199.12C131.29 200.87 131.99 202.56 133.27 203.75C134.38 204.79 135.84 205.36 137.35 205.36C137.57 205.36 137.8 205.34 138.03 205.32L184.71 200.03C187.59 199.7 189.82 197.37 190.02 194.48C192.51 158.63 187.99 129.56 185.07 115.43Z" />
			<path id="Path 65" fill-rule="evenodd" class="shp1" d="M146.66 117.12C140.38 117.12 135.27 112.01 135.27 105.73C135.27 99.45 140.38 94.34 146.66 94.34C152.94 94.34 158.05 99.45 158.05 105.73C158.05 112.01 152.94 117.12 146.66 117.12ZM146.66 94.84C140.65 94.84 135.77 99.73 135.77 105.73C135.77 111.74 140.65 116.62 146.66 116.62C152.66 116.62 157.55 111.74 157.55 105.73C157.55 99.73 152.66 94.84 146.66 94.84ZM147.07 128.84C146.15 128.84 145.29 128.36 144.63 127.49C143.98 126.63 143.61 125.47 143.58 124.24C143.53 121.67 145.03 119.54 146.93 119.5C146.95 119.5 146.97 119.5 146.99 119.5C147.9 119.5 148.77 119.98 149.42 120.85C150.07 121.71 150.44 122.87 150.47 124.1C150.5 125.33 150.17 126.5 149.55 127.39C148.92 128.31 148.06 128.82 147.12 128.84C147.1 128.84 147.09 128.84 147.07 128.84ZM146.99 120C146.97 120 146.96 120 146.94 120C145.32 120.04 144.04 121.93 144.08 124.23C144.11 125.36 144.44 126.41 145.03 127.19C145.59 127.93 146.31 128.34 147.07 128.34C147.08 128.34 147.1 128.34 147.11 128.34C147.88 128.33 148.6 127.89 149.14 127.11C149.7 126.3 149.99 125.24 149.97 124.11C149.95 122.98 149.61 121.93 149.02 121.15C148.46 120.41 147.74 120 146.99 120ZM148.74 140.33C146.87 140.33 145.31 138.28 145.26 135.73C145.23 134.5 145.56 133.33 146.17 132.44C146.8 131.53 147.67 131.01 148.6 130.99C148.62 130.99 148.64 130.99 148.66 130.99C149.57 130.99 150.44 131.47 151.09 132.34C151.75 133.21 152.12 134.36 152.14 135.59C152.17 136.83 151.84 137.99 151.23 138.88C150.59 139.8 149.73 140.31 148.79 140.33C148.78 140.33 148.76 140.33 148.74 140.33ZM148.66 131.49C148.64 131.49 148.63 131.49 148.62 131.49C147.84 131.51 147.12 131.95 146.58 132.73C146.03 133.53 145.73 134.59 145.76 135.72C145.8 138 147.14 139.83 148.74 139.83C148.76 139.83 148.77 139.83 148.78 139.83C149.55 139.82 150.28 139.38 150.82 138.6C151.37 137.8 151.67 136.73 151.64 135.6C151.62 134.48 151.28 133.42 150.7 132.64C150.13 131.9 149.41 131.49 148.66 131.49Z" />
			<path id="Path 66" class="shp19" d="M137.46 203.37L132.13 203.37C128.59 203.4 125.05 203.5 121.51 203.67C114.43 204.02 107.34 204.61 100.2 205.61C93.06 206.6 85.87 207.96 78.6 209.99C71.35 212.02 63.98 214.72 56.66 218.94L56.66 218.94L55.29 219.7C54.62 220.08 53.99 220.52 53.38 221.03C48.15 225.46 47.5 233.29 51.92 238.52C52.27 238.92 52.84 239.72 53.31 240.39L54.81 242.53C55.8 244 56.8 245.48 57.77 247C59.74 250.02 61.64 253.13 63.53 256.26C67.29 262.55 70.87 269 74.34 275.55C77.8 282.1 81.11 288.76 84.31 295.49C87.51 302.22 90.55 309.05 93.53 315.92L105.99 311.76C104.13 304.35 102.2 296.94 100.08 289.56C97.96 282.18 95.7 274.83 93.26 267.5C90.81 260.18 88.21 252.87 85.35 245.61C84.36 243.11 83.34 240.62 82.29 238.12C83.55 237.71 84.84 237.31 86.15 236.95C91.83 235.36 97.87 234.2 104.04 233.35C110.2 232.48 116.52 231.96 122.86 231.64C126.03 231.48 129.21 231.39 132.38 231.37L137.13 231.37C137.14 231.37 137.16 231.37 137.17 231.37C139.67 231.4 141.74 229.46 141.86 226.97L143.02 203.52C140.95 203.43 139.3 203.4 137.46 203.37Z" />
			<path id="Path 67" class="shp3" d="M193.17 208.19L191.98 193.37C191.85 191.75 191.07 190.25 189.81 189.21C188.56 188.18 186.94 187.7 185.32 187.88L135.5 193.53C132.39 193.88 130.08 196.56 130.18 199.69L130.39 205.98C125.89 207.02 121.39 208.14 116.87 209.46C109.81 211.53 102.73 213.87 95.51 217.12L94.38 217.6C93.94 217.79 93.5 218.01 93.07 218.26C87.06 221.74 85.02 229.43 88.5 235.43C88.82 235.97 89.27 236.87 89.66 237.64L90.86 240.09L93.23 245.14C94.8 248.54 96.3 252 97.79 255.48C100.75 262.45 103.56 269.54 106.26 276.68C108.97 283.83 111.54 291.05 114.02 298.32C116.51 305.59 118.86 312.91 121.17 320.26L134.16 317.34C133.02 309.61 131.83 301.86 130.49 294.13C129.14 286.4 127.71 278.67 126.11 270.95C124.51 263.23 122.8 255.52 120.88 247.8C120.08 244.64 119.26 241.48 118.39 238.31C120.44 237.63 122.52 236.98 124.62 236.36C130.77 234.56 137.19 233.09 143.63 231.72C150.08 230.35 156.65 229.21 163.23 228.16C165.15 227.86 167.11 227.57 169.06 227.29L176.81 226.88C178.82 226.78 180.74 226.32 182.53 225.58C182.65 225.56 182.77 225.55 182.89 225.53L182.88 225.43C185.17 224.42 187.24 222.93 188.94 220.99C192.05 217.44 193.55 212.89 193.17 208.19Z" />
			<path id="Path 68" class="shp6" d="M130.07 190.28C130.04 192.46 129.99 196.51 129.92 198.89C129.91 199.19 130.15 199.41 130.44 199.4C135.58 199.14 175.78 197.01 191.7 193.79C191.94 193.74 192.09 193.55 192.1 193.31C192.11 192.22 192.12 188.94 191.73 184.73C191.58 183.15 190.15 182.02 188.59 182.24C179.85 183.44 152.58 187.1 131.57 188.68C130.72 188.74 130.08 189.44 130.07 190.28Z" />
			<path id="Path 69" class="shp18" d="M146.1 113.2C144.18 113.2 142.26 112.52 140.72 111.13C130.02 101.41 128.9 86.13 128.8 84.42C128.56 80.01 131.95 76.24 136.36 76C140.77 75.77 144.52 79.12 144.78 83.52C144.96 86.38 146.53 94.79 151.48 99.28C154.75 102.25 154.99 107.31 152.02 110.58C150.45 112.32 148.28 113.2 146.1 113.2Z" />
			<path id="Path 70" class="shp20" d="M142.13 92.68C142.13 92.68 121.56 97.49 135.33 107.66C147.12 116.36 150.71 97.43 142.13 92.68Z" />
			<path id="Path 71" class="shp18" d="M141.76 75.35C141.82 76.76 141.95 78.46 142.07 80.02L142.52 84.74C142.69 86.28 142.87 87.82 143.08 89.26C143.29 90.69 143.52 92.07 143.74 93.18L143.94 94.25C145.44 101.98 140.39 109.46 132.67 110.96C125.86 112.28 119.24 108.51 116.74 102.32C115.86 100.16 115.2 98.23 114.57 96.33C113.94 94.43 113.4 92.61 112.88 90.79C112.36 88.97 111.88 87.18 111.41 85.39C110.95 83.56 110.52 81.88 110.08 79.88L109.99 79.48C108.08 70.81 113.56 62.23 122.23 60.32C130.9 58.41 139.48 63.89 141.39 72.56C141.59 73.47 141.72 74.46 141.76 75.35Z" />
			<path id="Path 72" class="shp3" d="M127.05 88.45C127.24 89.1 127.91 89.48 128.56 89.29C129.21 89.11 129.59 88.44 129.41 87.79C129.23 87.14 128.55 86.76 127.9 86.94C127.25 87.12 126.87 87.8 127.05 88.45ZM114.19 91.97C114.37 92.62 115.05 93 115.7 92.82C116.35 92.64 116.73 91.96 116.54 91.31C116.36 90.66 115.69 90.28 115.04 90.46C114.39 90.64 114.01 91.32 114.19 91.97ZM124.38 84.13L123.98 83.42C124.17 83.31 128.68 80.79 132.08 83.03L131.63 83.71C128.63 81.74 124.42 84.1 124.38 84.13ZM130.47 101.07L130 100.4C132.83 98.41 134.51 95.15 134.52 95.11L135.25 95.48C135.18 95.62 133.46 98.96 130.47 101.07ZM110.23 87.51L109.44 87.3C109.46 87.26 110.57 83.38 114.92 83.86L114.83 84.67C111.13 84.26 110.27 87.37 110.23 87.51Z" />
			<path id="Path 73" class="shp20" d="M124.18 98.83L120.66 98.83L120.75 98.34C121.34 95.19 120.94 91.99 119.56 88.83L120.31 88.5C121.68 91.65 122.13 94.85 121.63 98.01L124.18 98.01L124.18 98.83Z" />
			<path id="Path 74" class="shp3" d="M147.3 75.56C147.17 68.74 147.02 65.69 143.44 65.58L146.22 63.99C146.22 63.99 144.86 63.38 143.34 64.26C144.52 61.82 143.12 60.03 143.12 60.03L141.79 64.64C139.53 59.58 132.72 55.32 122.15 60.3C112.51 64.83 106.19 64.69 106.19 64.69C106.19 64.69 107.39 66.19 109.77 67.35C105.73 67.71 101.86 67.43 101.86 67.43C102.85 69.23 104.71 70.56 106.92 71.35C103.82 71.63 101.34 71.6 101.34 71.6C102.75 73.93 105.54 75.35 108.67 75.86C106.32 77.03 104.63 77.72 104.63 77.72C109.42 82.05 121.84 78.64 128.72 72.35C132.64 79.97 139.49 88.61 142.52 88.35C147.44 87.91 147.5 86.44 147.3 75.56Z" />
			<path id="Path 75" class="shp18" d="M136.16 85.86C137.81 80.88 140.52 78.07 143.62 81.97C148.13 87.62 143.19 96.81 139.91 93.59C136.63 90.37 136.16 85.86 136.16 85.86Z" />
			<path id="Path 76" class="shp21" d="M130.58 317.51C122.79 275.4 113.54 244.91 109.93 233.75C109.1 231.2 110.41 228.4 112.9 227.38C141.1 215.86 181.07 211.4 181.47 211.36L181.53 211.85C181.13 211.9 141.22 216.35 113.09 227.85C110.84 228.77 109.66 231.29 110.41 233.6C114.02 244.76 123.27 275.28 131.07 317.42L130.58 317.51Z" />
			<path id="Path 77" class="shp7" d="M133.19 326.11C131.59 327.9 128.71 329.42 127.1 330.06C126.67 330.23 126.37 330.57 126.25 331.02C125.47 334.07 121.79 344.96 117.64 347.93C113.01 351.24 124.7 351.22 128.46 345.48C132.22 339.74 135.01 336.32 137.67 334.23C139.8 332.56 138.69 328.98 135.3 325.97C134.67 325.41 133.74 325.49 133.19 326.11Z" />
			<path id="Path 78" class="shp6" d="M107.78 322.8C105.82 324.18 102.67 325.01 100.96 325.26C100.5 325.33 100.12 325.6 99.91 326.01C98.46 328.8 92.41 338.57 87.69 340.53C82.43 342.7 93.82 345.33 98.78 340.59C103.74 335.85 107.24 333.16 110.3 331.72C112.75 330.58 112.49 326.84 109.86 323.13C109.38 322.45 108.46 322.32 107.78 322.8Z" />
			<path id="Path 79" fill-rule="evenodd" class="shp1" d="M126.18 332.38C125.49 333 123.14 334.91 121.47 333.84C121.28 333.72 121.2 333.56 121.22 333.33C121.27 332.84 121.83 332.12 122.77 331.75C123.05 331.64 123.45 331.53 123.93 331.53C124.57 331.53 125.36 331.73 126.18 332.38ZM126.74 332.55C126.79 332.5 126.81 332.43 126.81 332.36C126.81 332.29 126.78 332.23 126.72 332.18C125.46 331.07 123.95 330.74 122.58 331.29C121.58 331.68 120.8 332.52 120.73 333.28C120.69 333.7 120.86 334.04 121.2 334.26C121.65 334.55 122.13 334.66 122.6 334.66C124.6 334.66 126.63 332.65 126.74 332.55Z" />
			<path id="Path 80" fill-rule="evenodd" class="shp1" d="M126.75 332.53C126.8 332.47 126.82 332.39 126.8 332.32C126.18 329.43 124.22 327.97 122.99 327.97C122.95 327.97 122.92 327.97 122.89 327.97C122.19 328.01 121.74 328.5 121.68 329.28C121.62 329.93 121.82 330.51 122.24 331C123.51 332.44 126.42 332.61 126.55 332.62L126.56 332.62C126.63 332.62 126.7 332.59 126.75 332.53ZM126.24 332.09C125.45 332 123.51 331.69 122.62 330.67C122.28 330.28 122.13 329.84 122.18 329.32C122.21 328.95 122.36 328.51 122.92 328.47C122.95 328.47 122.97 328.47 123 328.47C123.98 328.47 125.6 329.71 126.24 332.09ZM99.39 327.21C98.6 327.71 95.96 329.19 94.49 327.84C94.33 327.7 94.28 327.52 94.34 327.3C94.47 326.83 95.14 326.22 96.13 326.01C96.31 325.97 96.53 325.94 96.78 325.94C97.5 325.94 98.47 326.19 99.39 327.21ZM99.9 327.47C99.96 327.43 100 327.37 100.01 327.3C100.02 327.23 100 327.16 99.96 327.11C98.9 325.8 97.46 325.22 96.02 325.52C94.97 325.74 94.06 326.43 93.86 327.17C93.75 327.57 93.85 327.94 94.15 328.22C94.7 328.71 95.36 328.9 96.03 328.9C97.86 328.9 99.8 327.55 99.9 327.47Z" />
			<path id="Path 81" fill-rule="evenodd" class="shp1" d="M99.76 327.51C99.74 327.51 99.72 327.51 99.7 327.51C99.58 327.48 96.74 326.82 95.74 325.18C95.4 324.62 95.31 324.02 95.48 323.38C95.67 322.64 96.19 322.23 96.89 322.3C98.12 322.43 99.88 324.23 100.01 327.25C100.01 327.33 99.98 327.41 99.92 327.45C99.87 327.49 99.82 327.51 99.76 327.51ZM96.74 322.79C96.25 322.79 96.05 323.18 95.96 323.51C95.83 324.01 95.9 324.48 96.17 324.92C96.87 326.07 98.73 326.71 99.49 326.93C99.27 324.42 97.82 322.9 96.84 322.8C96.8 322.8 96.77 322.79 96.74 322.79Z" />
			<path id="Path 82" class="shp18" d="M190.81 136.88C188.72 127.53 185.79 118.83 181.86 110.12C180.57 107.28 177.27 105.86 174.3 106.97C171.19 108.12 169.62 111.58 170.77 114.68L170.85 114.89C172.31 118.79 173.83 123.01 175.06 127.13C176.37 131.27 177.55 135.43 178.44 139.58C179.31 143.73 180.04 147.87 180.22 151.83C180.44 155.75 180.07 159.6 178.89 162.07C178.71 162.52 178.04 163.66 177.51 164.55L175.83 167.31C174.69 169.13 173.51 170.91 172.28 172.63C169.85 176.11 167.15 179.32 164.26 182.24C158.53 187.97 151.53 192.09 143.56 193.32C140.91 192.83 137.54 192.47 133.66 191.23C133.03 191.03 132.32 191.03 131.59 191.16C127.69 191.87 123.58 199.74 124.63 203.56C125.28 205.93 128.57 204.22 132.21 203.69C140.11 202.54 149.69 202.5 149.82 200.59C149.84 200.34 149.83 200.12 149.83 199.89C152.73 199.43 155.6 198.66 158.35 197.59C163.01 195.68 167.27 192.96 171.07 189.85C174.9 186.75 178.2 183.17 181.25 179.49C182.76 177.63 184.18 175.73 185.54 173.8L187.55 170.89C188.22 169.87 188.78 169.12 189.61 167.55C191.08 164.75 191.81 161.92 192.25 159.23C192.66 156.53 192.81 153.91 192.72 151.39C192.56 146.33 191.85 141.53 190.81 136.88Z" />
			<path id="Path 83" class="shp8" d="M169.47 99.38C165.38 98.93 167.85 112.9 168.25 119.92C168.64 126.94 170.89 140.1 170.89 140.1L191.41 136.78C192.84 136.55 193.82 135.21 193.57 133.78C192.18 125.68 186.6 101.28 169.47 99.38Z" />
			<path id="Path 84" class="shp1" d="M170.64 140.14C170.62 140.01 168.39 126.89 168 119.94C167.96 119.23 167.91 118.45 167.85 117.63C167.65 114.32 167.38 110.2 167.51 106.76L168.01 106.78C167.88 110.19 168.14 114.3 168.35 117.6C168.41 118.42 168.45 119.2 168.5 119.91C168.89 126.84 171.11 139.92 171.14 140.06L170.64 140.14Z" />
			<path id="Path 85" class="shp22" d="M118.88 317.69L120.32 322.97L136.09 320.33L135.16 313.84L118.88 317.69Z" />
			<path id="Path 86" class="shp3" d="M90.54 312.25L92.18 317.46L107.83 314.23L106.65 307.78L90.54 312.25Z" />
			<path id="Path 87" class="shp1" d="M155.68 75.89L155.18 75.89L155.18 64.23L155.68 64.23L155.68 75.89Z" />
			<path id="Path 88" fill-rule="evenodd" class="shp1" d="M155.43 77.31C155.27 77.31 155.11 77.29 154.95 77.23C154.59 77.1 154.31 76.84 154.14 76.5C153.98 76.16 153.97 75.77 154.09 75.41C154.22 75.06 154.48 74.77 154.82 74.61C155.16 74.44 155.55 74.43 155.91 74.55C156.27 74.68 156.55 74.94 156.72 75.28C156.88 75.63 156.9 76.01 156.77 76.37C156.64 76.73 156.38 77.01 156.04 77.18C155.85 77.27 155.64 77.31 155.43 77.31ZM155.43 74.97C155.3 74.97 155.16 75 155.04 75.06C154.81 75.16 154.65 75.35 154.56 75.58C154.48 75.81 154.49 76.06 154.6 76.28C154.7 76.51 154.89 76.68 155.12 76.76C155.36 76.84 155.61 76.83 155.83 76.72C156.05 76.62 156.22 76.43 156.3 76.2L156.3 76.2C156.38 75.97 156.37 75.72 156.26 75.5C156.16 75.27 155.97 75.11 155.74 75.02C155.64 74.99 155.53 74.97 155.43 74.97ZM145.19 76.14C141.19 76.14 134.93 74.7 129.06 72.6C119.89 69.33 111.03 64.22 112.06 61.34L114.73 53.86L115.2 54.03L112.53 61.51C111.82 63.51 118.36 68.25 129.22 72.13C140.09 76.01 148.16 76.49 148.87 74.48L151.54 67L152.01 67.17L149.34 74.65C148.97 75.69 147.43 76.14 145.19 76.14Z" />
			<path id="Path 89" fill-rule="evenodd" class="shp1" d="M162.93 65.25C162.88 65.25 162.82 65.25 162.76 65.24L134.69 62.33C133.45 62.21 132.24 61.78 131.2 61.09L107.64 45.56C106.94 45.1 106.83 44.31 107.03 43.74C107.23 43.17 107.79 42.63 108.65 42.72L136.72 45.62C137.97 45.75 139.17 46.18 140.21 46.87L163.77 62.4C164.47 62.86 164.58 63.65 164.38 64.22C164.19 64.75 163.68 65.25 162.93 65.25ZM108.48 43.21C107.94 43.21 107.62 43.57 107.5 43.91C107.37 44.27 107.41 44.81 107.91 45.14L131.48 60.67C132.45 61.31 133.58 61.72 134.74 61.84L162.81 64.74C163.42 64.82 163.78 64.41 163.91 64.05C164.04 63.69 164.01 63.15 163.5 62.82L139.94 47.28C138.96 46.64 137.83 46.24 136.67 46.12L108.6 43.21C108.56 43.21 108.52 43.21 108.48 43.21ZM156.91 61.81L135.66 59.61C134.42 59.48 133.21 59.05 132.17 58.37L120 50.34L120.27 49.92L132.45 57.95C133.42 58.59 134.55 59 135.71 59.12L156.96 61.32L156.91 61.81Z" />
			<path id="Path 90" class="shp3" d="M149.19 201.59C149.17 201.59 149.15 201.59 149.13 201.59C148.57 201.55 148.16 201.08 148.19 200.53C148.35 198.25 147.96 196.66 147.02 195.65C146 194.56 144.23 194.06 141.42 194.06C140.87 194.06 140.42 193.61 140.42 193.06C140.42 192.5 140.87 192.06 141.42 192.06C144.82 192.06 147.06 192.77 148.48 194.29C149.82 195.72 150.38 197.8 150.19 200.66C150.15 201.19 149.72 201.59 149.19 201.59Z" />
			<path id="Path 91" class="shp4" d="M150.92 192.99C151 193.93 148.57 194.89 145.49 195.14C142.42 195.39 139.87 194.84 139.79 193.91L139.73 193.12L150.86 192.21L150.92 192.99Z" />
			<path id="Path 92" class="shp3" d="M150.86 192.21C150.93 193.14 148.5 194.1 145.43 194.35C142.36 194.61 139.8 194.05 139.73 193.12C139.65 192.19 142.08 191.23 145.15 190.97C148.23 190.72 150.78 191.27 150.86 192.21Z" />
			<path id="Path 93" class="shp4" d="M149.59 192.31C149.63 192.84 147.74 193.43 145.37 193.63C143 193.82 141.04 193.55 140.99 193.02C140.95 192.48 142.84 191.89 145.21 191.7C147.59 191.5 149.55 191.78 149.59 192.31Z" />
			<path id="Path 94" class="shp13" d="M40.67 215.77C40.94 217.65 42.7 218.96 44.58 218.69L160.7 201.74C162.58 201.47 163.89 199.71 163.62 197.83L40.67 215.77Z" />
			<path id="Path 95" class="shp23" d="M123.23 203.72C123.78 205.64 125.66 206.86 127.63 206.57L160.7 201.74C162.58 201.47 163.89 199.71 163.62 197.83L123.23 203.72Z" />
			<path id="Path 96" class="shp13" d="M121.56 205.27L44.08 216.57C40.72 217.06 37.17 214.78 36.18 211.5L20.56 159.97C19.56 156.69 21.49 153.61 24.85 153.12L102.33 141.81C105.68 141.32 109.24 143.6 110.23 146.88L125.85 198.42C126.84 201.7 124.91 204.78 121.56 205.27Z" />
			<path id="Path 97" class="shp2" d="M119.8 205.53L42.32 216.83C38.96 217.32 35.41 215.04 34.41 211.76L18.8 160.23C17.8 156.95 19.73 153.86 23.08 153.38L100.57 142.07C103.92 141.58 107.48 143.86 108.47 147.14L124.09 198.68C125.08 201.95 123.15 205.04 119.8 205.53Z" />
			<path id="Path 98" fill-rule="evenodd" class="shp1" d="M41.11 215.19C38.93 215.19 36.8 213.66 36.15 211.54L20.54 160.01C20.19 158.86 20.32 157.7 20.92 156.76C21.51 155.84 22.47 155.23 23.64 155.06L101.12 143.76C103.5 143.4 106.02 145.02 106.73 147.36L122.35 198.89C122.7 200.04 122.56 201.2 121.97 202.14C121.38 203.06 120.41 203.67 119.25 203.84L41.76 215.14C41.55 215.18 41.33 215.19 41.11 215.19ZM119.18 203.34C120.19 203.19 121.03 202.67 121.54 201.87C122.06 201.05 122.18 200.05 121.87 199.04L106.25 147.5C105.61 145.39 103.35 143.94 101.19 144.25L23.71 155.56C22.69 155.71 21.85 156.23 21.34 157.03C20.82 157.85 20.71 158.85 21.01 159.86L36.63 211.4C37.27 213.51 39.53 214.96 41.69 214.65L119.18 203.34Z" />
			<path id="Path 99" fill-rule="evenodd" class="shp1" d="M71.19 192.48C70.29 192.48 69.39 192.39 68.48 192.22C67.29 191.99 66.29 191.2 65.8 190.11C65.33 189.08 65.38 187.94 65.94 186.98C67.09 185.01 67.32 182.62 66.6 180.24C65.88 177.87 64.28 175.73 62.09 174.23C60.98 173.46 60.4 172.21 60.54 170.87C60.68 169.55 61.5 168.46 62.73 167.95C63.65 167.57 64.64 167.3 65.68 167.15C72.7 166.12 80.17 170.9 82.26 177.8C83.29 181.2 82.89 184.59 81.13 187.35C79.4 190.07 76.57 191.84 73.15 192.34C72.51 192.44 71.85 192.48 71.19 192.48ZM66.81 187.48C66.41 188.16 66.38 188.97 66.71 189.7C67.07 190.49 67.8 191.07 68.67 191.24C70.13 191.52 71.59 191.56 73.01 191.35C76.13 190.9 78.72 189.28 80.29 186.81C81.88 184.3 82.24 181.21 81.3 178.09C79.35 171.65 72.4 167.17 65.82 168.14C64.87 168.28 63.96 168.53 63.11 168.87C62.22 169.24 61.63 170.02 61.53 170.98C61.43 171.94 61.85 172.85 62.66 173.41C65.03 175.03 66.77 177.36 67.56 179.95C68.36 182.6 68.09 185.27 66.81 187.48Z" />
			<path id="Path 100" fill-rule="evenodd" class="shp2" d="M29.24 127.32C20.79 127.32 13.93 120.46 13.93 112.01C13.93 103.57 20.79 96.7 29.24 96.7C37.68 96.7 44.55 103.57 44.55 112.01C44.55 120.46 37.68 127.32 29.24 127.32ZM29.24 97.2C21.07 97.2 14.43 103.85 14.43 112.01C14.43 120.18 21.07 126.82 29.24 126.82C37.4 126.82 44.05 120.18 44.05 112.01C44.05 103.85 37.4 97.2 29.24 97.2Z" />
			<path id="Path 101" fill-rule="evenodd" class="shp1" d="M17.11 55.32C17.11 59.89 13.4 63.6 8.83 63.6C4.26 63.6 0.55 59.89 0.55 55.32C0.55 50.75 4.26 47.04 8.83 47.04C13.4 47.04 17.11 50.75 17.11 55.32ZM433.85 140.56C429.15 140.56 425.32 136.73 425.32 132.02C425.32 127.32 429.15 123.49 433.85 123.49C438.56 123.49 442.38 127.32 442.38 132.02C442.38 136.73 438.56 140.56 433.85 140.56ZM433.85 123.99C429.42 123.99 425.82 127.6 425.82 132.02C425.82 136.45 429.42 140.06 433.85 140.06C438.28 140.06 441.88 136.45 441.88 132.02C441.88 127.6 438.28 123.99 433.85 123.99Z" />
			<path id="Path 102" class="shp3" d="M192.1 459.99C192.1 462.68 189.92 464.86 187.23 464.86C184.54 464.86 182.35 462.68 182.35 459.99C182.35 457.3 184.54 455.11 187.23 455.11C189.92 455.11 192.1 457.3 192.1 459.99Z" />
			<path id="Path 103" fill-rule="evenodd" class="shp11" d="M355.64 57.05L339.67 57.05L347.65 43.22L355.64 57.05ZM78.49 121.67L78.37 121.25L74.13 105.41L90.39 109.77L90.09 110.07L78.49 121.67ZM74.84 106.12L78.74 120.71L89.43 110.03L74.84 106.12Z" />
			<path id="Path 104" class="shp3" d="M441.62 171.42L432 181.04L422.39 171.42L432 161.8L441.62 171.42Z" />
			<path id="Path 105" class="shp2" d="M430.04 44.7L429.68 44.34L451.32 22.71L451.68 23.06L430.04 44.7Z" />
			<path id="Path 106" class="shp11" d="M24.82 233.12L3.18 211.48L3.53 211.12L25.17 232.76L24.82 233.12Z" />
			<path id="Path 107" class="shp3" d="M312.09 479.27L290.45 457.63L290.81 457.27L312.45 478.91L312.09 479.27Z" />
		</g>
	</g>
</svg>